<svg version="1.1" xmlns="http://www.w3.org/2000/svg" viewBox="-5.961777245813325 -27.44154677525992 11.92355449162665 54.855575491324004" fill="none" stroke="black" stroke-width="0.6%" vector-effect="non-scaling-stroke">
    <path d="M -4.3415 0.38231 L -4.34416 0.38254 L -4.34662 0.38276 L -4.34889 0.38296 L -4.35096 0.38314 L -4.35283 0.38331 L -4.3545 0.38345 L -4.35598 0.38358 L -4.35727 0.3837 L -4.35835 0.38379 L -4.35924 0.38387 L -4.35993 0.38393 L -4.36042 0.38397 L -4.36072 0.384 L -4.36082 0.38401 L -4.94261 -2.89383" />
    <path d="M -4.3415 0.38231 L -4.30121 0.37876 L -4.23917 0.3733 L -4.15593 0.36597 L -4.05225 0.35684 L -3.92903 0.34599 L -3.78739 0.33351 L -3.62858 0.31953 L -3.45402 0.30416 L -3.26526 0.28754 L -3.06399 0.26981 L -2.852 0.25114 L -2.63117 0.2317 L -2.40348 0.21165 L -2.17095 0.19117" />
    <path d="M -4.3415 0.38231 L -4.34416 0.35101 L -4.34662 0.3197 L -4.34889 0.28838 L -4.35096 0.25704 L -4.35283 0.2257 L -4.3545 0.19436 L -4.35598 0.16301 L -4.35727 0.13166 L -4.35835 0.10032 L -4.35924 0.06898 L -4.35993 0.03764 L -4.36042 0.00632 L -4.36072 -0.02499 L -4.36082 -0.05629" />
    <path d="M -4.36082 -4.32323 A 2.5 1.7609 349.93513 0 0 -4.94261 -2.89383" />
    <path d="M -4.28387 0.81753 L -4.28924 0.7867 L -4.29442 0.75582 L -4.29941 0.72489 L -4.30421 0.69392 L -4.30881 0.66291 L -4.31322 0.63185 L -4.31743 0.60076 L -4.32146 0.56964 L -4.32529 0.53848 L -4.32892 0.5073 L -4.33236 0.47609 L -4.3356 0.44485 L -4.33865 0.41359 L -4.3415 0.38231" />
    <path d="M -4.36082 3.71308 A 2.5 1.7609 180 0 0 -3.53816 5.01881" />
    <path d="M -2.17095 -26.42794 A 2.5 1.7609 0 0 1 0.63918 -24.68065 L 0.63918 -0.05629 L 0.62585 -0.05511 L 0.586 -0.0516 L 0.52006 -0.0458 L 0.42872 -0.03775 L 0.31297 -0.02756 L 0.17403 -0.01533 L 0.0134 -0.00118 L -0.16723 0.01473 L -0.36592 0.03222 L -0.58054 0.05112 L -0.80883 0.07122 L -1.04833 0.09231 L -1.29649 0.11417 L -1.55068 0.13655 L -1.83038 0.16118 L -2.11046 0.18585 L -2.3874 0.21023 L -2.65772 0.23404 L -2.91802 0.25696 L -3.16503 0.27871 L -3.39563 0.29902 L -3.60693 0.31762 L -3.79627 0.3343 L -3.96128 0.34883 L -4.09986 0.36103 L -4.2103 0.37076 L -4.29118 0.37788 L -4.3415 0.38231" />
    <path d="M 0.63918 -24.68065 A 2.5 1.7609 0 1 1 -4.36082 -24.68065 L -4.36082 -0.05629" />
    <path d="M -4.36082 -24.68065 A 2.5 1.7609 0 0 1 -2.17095 -26.42794" />
    <path d="M 2.48109 22.85142 A 2.5 1.7609 169.93513 0 1 4.94261 24.18912 L 0.63918 -0.05629" />
    <path d="M 4.94261 24.18912 A 2.5 1.7609 169.93513 0 1 0.01956 25.06293 L -4.28387 0.81753" />
    <path d="M 0.01956 25.06293 A 2.5 1.7609 169.93513 0 1 2.48109 22.85142" />
    <path d="M -4.36082 0.38401 L -4.36082 3.71308" />
</svg>