<svg version="1.1" xmlns="http://www.w3.org/2000/svg" viewBox="-8.819793788283736 -28.374783950495882 17.63958757656747 55.80817559236236" fill="none" stroke="black" stroke-width="0.6%" vector-effect="non-scaling-stroke">
    <path d="M -6.845 0.90118 L -6.85554 0.90432 L -6.86531 0.90735 L -6.8743 0.91028 L -6.88252 0.9131 L -6.88996 0.91581 L -6.89662 0.91841 L -6.9025 0.9209 L -6.9076 0.92328 L -6.91192 0.92554 L -6.91545 0.9277 L -6.9182 0.92974 L -6.92016 0.93167 L -6.92134 0.93349 L -6.92173 0.9352 L -6.92173 4.06268 A 4 2.79182 180 0 0 -5.34027 6.28638" />
    <path d="M -6.845 0.90118 L -6.85554 0.82398 L -6.86531 0.7467 L -6.8743 0.66934 L -6.88252 0.59192 L -6.88996 0.51445 L -6.89662 0.43695 L -6.9025 0.35944 L -6.9076 0.28192 L -6.91192 0.20442 L -6.91545 0.12695 L -6.9182 0.04953 L -6.92016 -0.02784 L -6.92134 -0.10513 L -6.92173 -0.18232" />
    <path d="M -6.92173 -4.42302 A 4 2.90533 343.53427 0 0 -7.7324 -1.80708" />
    <path d="M -6.60484 2.00785 L -6.62725 1.93055 L -6.64886 1.85291 L -6.66967 1.77496 L -6.68969 1.6967 L -6.7089 1.61815 L -6.7273 1.53934 L -6.74489 1.46028 L -6.76167 1.38098 L -6.77762 1.30146 L -6.79276 1.22173 L -6.80706 1.14183 L -6.82054 1.06176 L -6.83318 0.98153 L -6.845 0.90118" />
    <path d="M -3.7015 -27.32122 A 4 2.79182 360 0 1 1.07827 -24.58296 A 4 2.79182 360 0 1 -6.92173 -24.58296 L -6.92173 -0.18232" />
    <path d="M -6.92173 -24.58296 A 4 2.79182 360 0 1 -3.7015 -27.32122" />
    <path d="M -2.14197 0.12885 L -2.58614 0.19122 L -3.03453 0.25568 L -3.4815 0.3214 L -3.92143 0.38758 L -4.34879 0.45337 L -4.7582 0.51794 L -5.14452 0.58049 L -5.50289 0.64023 L -5.8288 0.69641 L -6.11814 0.74832 L -6.3673 0.7953 L -6.57312 0.83678 L -6.73302 0.87222 L -6.845 0.90118" />
    <path d="M 1.07827 -0.22133 L 1.07826 -0.22139 L 1.07826 -0.22146 L 1.07826 -0.22153 L 1.07825 -0.2216 L 1.07825 -0.22167 L 1.07824 -0.22174 L 1.07823 -0.22181 L 1.07822 -0.22188 L 1.07821 -0.22195 L 1.07819 -0.22201 L 1.07818 -0.22208 L 1.07816 -0.22215 L 1.07815 -0.22222 L 1.07813 -0.22229 L 1.05585 -0.23052 L 0.99571 -0.23316 L 0.8983 -0.23019 L 0.76454 -0.22163 L 0.59569 -0.20756 L 0.39338 -0.18813 L 0.15951 -0.1635 L -0.10368 -0.13393 L -0.39368 -0.09968 L -0.70774 -0.06108 L -1.04287 -0.01851 L -1.39589 0.02763 L -1.76342 0.07691 L -2.14197 0.12885" />
    <path d="M 3.86922 20.46698 A 4 2.90533 163.53427 0 1 7.7324 22.2916 L 1.07813 -0.22229" />
    <path d="M 7.7324 22.2916 A 4 2.90533 163.53427 0 1 0.06048 24.55913 L -6.60484 2.00785" />
    <path d="M 0.06048 24.55913 A 4 2.90533 163.53427 0 1 3.86922 20.46698" />
    <path d="M -6.92173 0.93569 L -7.7324 -1.80708" />
    <path d="M 1.07827 -24.58296 L 1.07827 -0.22182" />
</svg>