<svg version="1.1" xmlns="http://www.w3.org/2000/svg" viewBox="-14.589571076293948 -9.940821987475955 29.1791421525879 19.881643974951906" fill="none" stroke="black" stroke-width="0.6%" vector-effect="non-scaling-stroke">
    <path d="M -9.34243 7.06124 A 5 1.49079 180 0 0 -5.4381 7.99253 L -5.4381 -1.55264 A 5 1.49079 0 0 1 -9.34243 -2.48393 A 5 1.49079 0 0 1 -13.58957 -3.95772 A 5 1.49079 0 0 1 -3.93238 -4.50022 A 5 1.49079 0 0 1 -0.02805 -3.56892 A 5 1.49079 0 0 1 4.21909 -2.09513 L 4.21909 7.45003" />
    <path d="M -9.34243 7.06124 L -9.34243 -2.48393" />
    <path d="M -5.4381 7.99253 A 5 1.49079 180 0 0 4.21909 7.45003" />
    <path d="M -13.58957 5.58745 A 5 1.49079 180 0 0 -9.34243 7.06124" />
    <path d="M 4.21909 -2.09513 A 5 1.49079 0 0 1 -5.4381 -1.55264" />
    <path d="M 9.34243 -7.06124 A 5 1.49079 0 0 1 13.58957 -5.58745 L 13.58957 3.95772" />
    <path d="M 13.58957 -5.58745 A 5 1.49079 0 0 1 3.93238 -5.04495 A 5 1.49079 0 0 1 0.02805 -5.97624 A 5 1.49079 0 0 1 -4.21909 -7.45003 L -4.21909 -4.68187" />
    <path d="M 3.93238 -2.5927 L 3.93238 -5.04495" />
    <path d="M 4.21909 4.68187 A 5 1.49079 180 0 0 13.58957 3.95772" />
    <path d="M -4.21909 -7.45003 A 5 1.49079 0 0 1 5.4381 -7.99253 A 5 1.49079 0 0 1 9.34243 -7.06124" />
    <path d="M 0.02805 -3.56628 L 0.02805 -5.97624" />
    <path d="M -13.58957 -3.95772 L -13.58957 5.58745" />
</svg>