<svg version="1.1" xmlns="http://www.w3.org/2000/svg" viewBox="-9.749741958310432 -28.67344108710424 19.499483916620868 56.42327985261246" fill="none" stroke="black" stroke-width="0.6%" vector-effect="non-scaling-stroke">
    <path d="M -7.65948 1.15146 L -7.67434 1.15594 L -7.68811 1.16025 L -7.7008 1.16439 L -7.71239 1.16835 L -7.72289 1.17215 L -7.73229 1.17577 L -7.74059 1.17921 L -7.74778 1.18249 L -7.75388 1.18558 L -7.75886 1.1885 L -7.76274 1.19124 L -7.76552 1.1938 L -7.76718 1.19619 L -7.76773 1.19839 L -7.76773 4.18503 A 4.5 3.13137 180 0 0 -5.93093 6.70913" />
    <path d="M -7.65948 1.15146 L -7.67434 1.05441 L -7.68811 0.95721 L -7.7008 0.85989 L -7.71239 0.76248 L -7.72289 0.66499 L -7.73229 0.56745 L -7.74059 0.46989 L -7.74778 0.37233 L -7.75388 0.27479 L -7.75886 0.1773 L -7.76274 0.07988 L -7.76552 -0.01744 L -7.76718 -0.11464 L -7.76773 -0.2117" />
    <path d="M -7.76773 -4.39767 A 4.5 3.26141 341.56406 0 0 -8.62691 -1.37836" />
    <path d="M -7.3216 2.53736 L -7.35304 2.44112 L -7.38339 2.34436 L -7.41264 2.24709 L -7.44077 2.14934 L -7.46779 2.05114 L -7.49368 1.95252 L -7.51844 1.8535 L -7.54205 1.75411 L -7.56452 1.65437 L -7.58584 1.55432 L -7.606 1.45397 L -7.62499 1.35337 L -7.64282 1.25252 L -7.65948 1.15146" />
    <path d="M -4.24885 -27.59811 A 4.5 3.13137 360 0 1 1.23227 -24.54207 A 4.5 3.13137 360 0 1 -7.76773 -24.54207 L -7.76773 -0.2117" />
    <path d="M -7.76773 -24.54207 A 4.5 3.13137 360 0 1 -4.24885 -27.59811" />
    <path d="M -2.28662 0.17816 L -2.78451 0.25642 L -3.28847 0.33736 L -3.79217 0.41995 L -4.28928 0.50315 L -4.77355 0.58593 L -5.23887 0.66722 L -5.67941 0.74602 L -6.08962 0.82134 L -6.46434 0.89222 L -6.79887 0.95777 L -7.08898 1.01718 L -7.33105 1.06968 L -7.52201 1.11464 L -7.65948 1.15146" />
    <path d="M 1.23227 -0.26091 L 1.23226 -0.261 L 1.23226 -0.26109 L 1.23226 -0.26118 L 1.23225 -0.26127 L 1.23224 -0.26136 L 1.23223 -0.26145 L 1.23222 -0.26154 L 1.2322 -0.26163 L 1.23218 -0.26172 L 1.23216 -0.2618 L 1.23214 -0.26189 L 1.23212 -0.26198 L 1.23209 -0.26206 L 1.23206 -0.26215 L 1.20734 -0.27103 L 1.14156 -0.27312 L 1.03533 -0.2684 L 0.88961 -0.25692 L 0.70575 -0.23878 L 0.48543 -0.21415 L 0.23067 -0.18326 L -0.05618 -0.14638 L -0.3725 -0.10386 L -0.71539 -0.05608 L -1.08169 -0.00349 L -1.46805 0.05343 L -1.87093 0.11417 L -2.28662 0.17816" />
    <path d="M 4.32362 20.00774 A 4.5 3.26141 161.56406 0 1 8.62691 21.92112 L 1.23206 -0.26215" />
    <path d="M 8.62691 21.92112 A 4.5 3.26141 161.56406 0 1 0.08881 24.76732 L -7.3216 2.53736" />
    <path d="M 0.08881 24.76732 A 4.5 3.26141 161.56406 0 1 4.32362 20.00774" />
    <path d="M -7.76773 1.19903 L -8.62691 -1.37836" />
    <path d="M 1.23227 -24.54207 L 1.23227 -0.26155" />
</svg>