<svg version="1.1" xmlns="http://www.w3.org/2000/svg" viewBox="-8.819793788283736 -27.69021864216537 17.63958757656747 55.839751357020674" fill="none" stroke="black" stroke-width="0.6%" vector-effect="non-scaling-stroke">
    <path d="M -6.65005 2.27687 L -6.6606 2.28002 L -6.67037 2.28305 L -6.67936 2.28598 L -6.68758 2.2888 L -6.69502 2.29151 L -6.70168 2.29411 L -6.70756 2.2966 L -6.71266 2.29897 L -6.71698 2.30124 L -6.72051 2.3034 L -6.72326 2.30544 L -6.72522 2.30737 L -6.7264 2.30919 L -6.72679 2.31089 L -6.72679 4.74725 A 4 2.79182 180 0 0 -5.39143 6.82941" />
    <path d="M -6.65005 2.27687 L -6.6606 2.19968 L -6.67037 2.1224 L -6.67936 2.04504 L -6.68758 1.96762 L -6.69502 1.89015 L -6.70168 1.81265 L -6.70756 1.73514 L -6.71266 1.65762 L -6.71698 1.58012 L -6.72051 1.50265 L -6.72326 1.42523 L -6.72522 1.34786 L -6.7264 1.27057 L -6.72679 1.19337" />
    <path d="M -6.72679 -3.89816 A 4 2.90533 343.53427 0 0 -7.7324 -1.09094" />
    <path d="M -6.4099 3.38355 L -6.43231 3.30625 L -6.45392 3.22861 L -6.47473 3.15065 L -6.49475 3.0724 L -6.51396 2.99385 L -6.53236 2.91504 L -6.54995 2.83597 L -6.56673 2.75667 L -6.58268 2.67715 L -6.59782 2.59743 L -6.61212 2.51753 L -6.6256 2.43745 L -6.63824 2.35723 L -6.65005 2.27687" />
    <path d="M -3.50656 -26.63666 A 4 2.79182 360 0 1 1.27321 -23.8984 A 4 2.79182 360 0 1 -6.72679 -23.8984 L -6.72679 1.19337" />
    <path d="M -6.72679 -23.8984 A 4 2.79182 360 0 1 -3.50656 -26.63666" />
    <path d="M -1.94703 1.50455 L -2.3912 1.56692 L -2.83959 1.63138 L -3.28656 1.6971 L -3.72649 1.76328 L -4.15385 1.82906 L -4.56326 1.89364 L -4.94958 1.95619 L -5.30795 2.01593 L -5.63385 2.07211 L -5.9232 2.12402 L -6.17235 2.171 L -6.37818 2.21248 L -6.53808 2.24791 L -6.65005 2.27687" />
    <path d="M 1.27321 1.15437 L 1.27321 1.1543 L 1.2732 1.15423 L 1.2732 1.15416 L 1.27319 1.15409 L 1.27319 1.15403 L 1.27318 1.15396 L 1.27317 1.15389 L 1.27316 1.15382 L 1.27315 1.15375 L 1.27313 1.15368 L 1.27312 1.15362 L 1.2731 1.15355 L 1.27309 1.15348 L 1.27307 1.15341 L 1.25079 1.14518 L 1.19065 1.14254 L 1.09324 1.14551 L 0.95948 1.15407 L 0.79063 1.16813 L 0.58832 1.18757 L 0.35445 1.2122 L 0.09126 1.24177 L -0.19874 1.27602 L -0.5128 1.31461 L -0.84793 1.35719 L -1.20095 1.40333 L -1.56848 1.45261 L -1.94703 1.50455" />
    <path d="M 3.86922 21.18312 A 4 2.90533 163.53427 0 1 7.7324 23.00774 L 1.27307 1.15341" />
    <path d="M 7.7324 23.00774 A 4 2.90533 163.53427 0 1 0.06048 25.27527 L -6.4099 3.38355" />
    <path d="M 0.06048 25.27527 A 4 2.90533 163.53427 0 1 3.86922 21.18312" />
    <path d="M -6.72679 2.31139 L -7.7324 -1.09094" />
    <path d="M 1.27321 -23.8984 L 1.27321 1.15388" />
</svg>